:FULLY-SPECIFIED
:FORCE-ALL-JOINTS-BE-3DOF
:DEGREES
3058
root -0.844436 16.0032 -31.363 8.12002 -39.0988 -9.05472
lfemur -27.5109 12.2401 -4.95466
ltibia 43.3573 -0 0
lfoot -8.99573 6.8541 -0.499468
ltoes -31.5727 0 0
rfemur -22.5102 -6.92828 18.127
rtibia 52.8222 -0 0
rfoot -19.0504 -19.1408 0.00556845
rtoes -16.3854 0 0
lowerback 9.59121 3.33864 -0.277953
upperback -3.66897 4.58215 1.67016
thorax -9.39318 2.27789 0.976542
lowerneck -5.36141 0.443838 -4.03384
upperneck 10.7324 0.4608 4.41962
head 4.41609 0.288586 1.88632
lclavicle 1.49778e-14 3.38396e-15 -3.13065e-30
lhumerus -18.5715 -2.36739 86.4975
lradius 53.264 -0 0
lwrist -19.4292 0 0
lhand -35.9987 30.2095 0.0345594
lfingers 7.12502 -0 0
lthumb -9.10735 59.9662 0.0378156
rclavicle 1.49778e-14 3.38396e-15 -3.13065e-30
rhumerus -38.4093 23.7415 -86.6304
rradius 62.8569 -0 0
rwrist -28.7182 0 0
rhand -10.5394 -32.3885 0.305293
rfingers 7.12502 -0 0
rthumb 15.4423 -61.5127 0.372498
3059
root -0.834571 16.0077 -31.3717 8.09153 -38.8986 -9.01892
lfemur -27.4544 12.1703 -4.96736
ltibia 43.3197 -0 0
lfoot -9.03475 6.87341 -0.498328
ltoes -31.614 0 0
rfemur -22.4878 -6.89558 18.1263
rtibia 52.7509 -0 0
rfoot -19.0172 -19.1406 0.00555577
rtoes -16.3928 0 0
lowerback 9.57407 3.33201 -0.280874
upperback -3.67262 4.57291 1.67073
thorax -9.38731 2.27378 0.981652
lowerneck -5.36625 0.418131 -4.05031
upperneck 10.7406 0.426796 4.42815
head 4.41979 0.271732 1.89024
lclavicle 1.50601e-14 3.44122e-15 -3.12354e-30
lhumerus -18.6262 -2.39114 86.5138
lradius 53.1384 -0 0
lwrist -19.4301 0 0
lhand -35.9865 30.2137 0.0344809
lfingers 7.12502 -0 0
lthumb -9.09558 59.9711 0.0377296
rclavicle 1.50601e-14 3.44122e-15 -3.12354e-30
rhumerus -38.388 23.6599 -86.5982
rradius 62.7195 -0 0
rwrist -28.5662 0 0
rhand -10.5756 -32.4012 0.304597
rfingers 7.12502 -0 0
rthumb 15.4074 -61.5288 0.371649
3060
root -0.824706 16.0122 -31.3804 8.06329 -38.6983 -8.98334
lfemur -27.398 12.1005 -4.98013
ltibia 43.2821 -0 0
lfoot -9.07377 6.89272 -0.497176
ltoes -31.6552 0 0
rfemur -22.4654 -6.86288 18.1256
rtibia 52.6796 -0 0
rfoot -18.984 -19.1403 0.00554294
rtoes -16.4002 0 0
lowerback 9.55694 3.32537 -0.283794
upperback -3.67627 4.56368 1.67131
thorax -9.38144 2.26968 0.986762
lowerneck -5.37109 0.392424 -4.06678
upperneck 10.7487 0.392792 4.43667
head 4.42349 0.254878 1.89416
lclavicle 1.51424e-14 3.49848e-15 -3.11634e-30
lhumerus -18.6809 -2.41488 86.5302
lradius 53.0129 -0 0
lwrist -19.4311 0 0
lhand -35.9743 30.218 0.0344014
lfingers 7.12502 -0 0
lthumb -9.08382 59.9759 0.0376427
rclavicle 1.51424e-14 3.49848e-15 -3.11634e-30
rhumerus -38.3669 23.5783 -86.566
rradius 62.5821 -0 0
rwrist -28.4141 0 0
rhand -10.6119 -32.4139 0.303893
rfingers 7.12502 -0 0
rthumb 15.3725 -61.5449 0.37079
3061
root -0.814842 16.0166 -31.3891 8.03528 -38.498 -8.94799
lfemur -27.3415 12.0308 -4.99297
ltibia 43.2445 -0 0
lfoot -9.1128 6.91203 -0.49601
ltoes -31.6964 0 0
rfemur -22.443 -6.83018 18.125
rtibia 52.6083 -0 0
rfoot -18.9508 -19.1401 0.00552997
rtoes -16.4076 0 0
lowerback 9.53981 3.31873 -0.286711
upperback -3.67992 4.55444 1.67189
thorax -9.37558 2.26557 0.991871
lowerneck -5.37592 0.366715 -4.08325
upperneck 10.7568 0.358786 4.44519
head 4.42718 0.238024 1.89807
lclavicle 1.52247e-14 3.55574e-15 -3.10906e-30
lhumerus -18.7356 -2.4386 86.5467
lradius 52.8873 -0 0
lwrist -19.4321 0 0
lhand -35.9621 30.2223 0.034321
lfingers 7.12502 -0 0
lthumb -9.07205 59.9808 0.0375547
rclavicle 1.52247e-14 3.55574e-15 -3.10906e-30
rhumerus -38.3457 23.4967 -86.5338
rradius 62.4447 -0 0
rwrist -28.262 0 0
rhand -10.6481 -32.4266 0.303181
rfingers 7.12502 -0 0
rthumb 15.3377 -61.561 0.369922
3062
root -0.804977 16.0211 -31.3977 8.00751 -38.2977 -8.91287
lfemur -27.2851 11.961 -5.00587
ltibia 43.2069 -0 0
lfoot -9.15182 6.93134 -0.494832
ltoes -31.7377 0 0
rfemur -22.4206 -6.79748 18.1243
rtibia 52.537 -0 0
rfoot -18.9176 -19.1398 0.00551684
rtoes -16.4149 0 0
lowerback 9.52267 3.31209 -0.289626
upperback -3.68357 4.54521 1.67246
thorax -9.36971 2.26146 0.99698
lowerneck -5.38075 0.341005 -4.09971
upperneck 10.765 0.324779 4.4537
head 4.43088 0.22117 1.90199
lclavicle 1.5307e-14 3.61301e-15 -3.1017e-30
lhumerus -18.7903 -2.46231 86.5631
lradius 52.7617 -0 0
lwrist -19.433 0 0
lhand -35.9499 30.2265 0.0342397
lfingers 7.12502 -0 0
lthumb -9.06029 59.9856 0.0374658
rclavicle 1.5307e-14 3.61301e-15 -3.1017e-30
rhumerus -38.3247 23.4151 -86.5017
rradius 62.3073 -0 0
rwrist -28.1099 0 0
rhand -10.6844 -32.4393 0.302461
rfingers 7.12502 -0 0
rthumb 15.3028 -61.5771 0.369044
